<?xml version="1.0" standalone="no"?>
<!DOCTYPE svg PUBLIC "-//W3C//DTD SVG 20010904//EN"
 "http://www.w3.org/TR/2001/REC-SVG-20010904/DTD/svg10.dtd">
<svg version="1.0" xmlns="http://www.w3.org/2000/svg"
 width="310.000000pt" height="310.000000pt" viewBox="0 0 310.000000 310.000000"
 preserveAspectRatio="xMidYMid meet">
<metadata>
Created by potrace 1.11, written by Peter Selinger 2001-2013
</metadata>
<g transform="translate(0.000000,310.000000) scale(0.100000,-0.100000)"
fill="#000000" stroke="none">
<path d="M1368 2800 c-457 -73 -840 -383 -1002 -812 -56 -149 -70 -240 -70
-438 0 -198 14 -289 70 -438 130 -344 403 -616 749 -745 155 -58 235 -71 435
-71 200 0 280 13 435 71 349 130 627 409 750 751 57 159 69 234 69 432 0 159
-3 198 -22 275 -64 253 -169 442 -342 615 -170 170 -367 281 -610 340 -97 24
-363 35 -462 20z m403 -104 c464 -89 819 -441 925 -918 23 -101 23 -356 1
-456 -108 -475 -451 -818 -917 -918 -117 -25 -343 -25 -460 0 -466 100 -810
444 -916 918 -23 100 -23 356 0 456 53 238 159 435 321 597 170 170 404 291
625 324 41 6 86 13 100 15 45 8 244 -3 321 -18z"/>
<path d="M450 1575 l0 -115 25 0 c23 0 25 3 25 50 l0 50 45 0 45 0 0 -50 c0
-47 2 -50 25 -50 l25 0 0 115 0 115 -25 0 c-23 0 -25 -3 -25 -50 l0 -50 -45 0
-45 0 0 50 c0 47 -2 50 -25 50 l-25 0 0 -115z"/>
<path d="M760 1575 l0 -115 80 0 c64 0 80 3 80 15 0 12 -13 15 -55 15 l-55 0
0 35 c0 35 0 35 45 35 33 0 45 4 45 15 0 11 -12 15 -45 15 -45 0 -45 0 -45 35
l0 35 50 0 c38 0 50 4 50 15 0 12 -15 15 -75 15 l-75 0 0 -115z"/>
<path d="M1032 1670 c-29 -27 -28 -40 3 -40 14 0 25 4 25 9 0 13 34 23 54 15
28 -11 19 -44 -14 -50 -35 -8 -41 -34 -7 -34 43 0 60 -35 31 -64 -21 -21 -41
-20 -61 4 -20 23 -53 27 -53 5 0 -50 109 -76 150 -35 24 24 26 67 5 90 -14 15
-14 18 0 30 21 17 19 46 -5 70 -28 28 -98 27 -128 0z"/>
<path d="M1353 1658 c-6 -18 -25 -70 -42 -115 l-30 -83 23 0 c19 0 26 7 31 30
6 28 10 30 51 30 41 0 45 -2 51 -30 4 -23 11 -30 29 -30 13 0 24 2 24 5 0 2
-19 54 -41 115 -36 94 -45 110 -64 110 -16 0 -24 -9 -32 -32z m57 -95 c0 -7
-12 -13 -26 -13 -20 0 -25 4 -20 16 3 9 9 28 13 42 l6 27 13 -30 c7 -16 13
-36 14 -42z"/>
<path d="M1590 1575 l0 -115 65 0 c75 0 105 20 105 70 0 43 -31 70 -80 70 -38
0 -40 2 -40 30 0 29 1 30 50 30 38 0 50 4 50 15 0 12 -15 15 -75 15 l-75 0 0
-115z m118 -17 c29 -29 2 -68 -47 -68 -18 0 -21 6 -21 40 0 37 2 40 28 40 15
0 33 -5 40 -12z"/>
<path d="M1870 1686 c0 -2 16 -37 35 -79 40 -87 43 -107 15 -114 -28 -7 -25
-33 4 -33 31 0 39 10 91 129 l44 102 -27 -3 c-23 -3 -30 -12 -47 -58 l-19 -55
-25 58 c-19 46 -29 57 -48 57 -12 0 -23 -2 -23 -4z"/>
<path d="M2196 1623 c-9 -86 -24 -133 -42 -133 -10 0 -14 -13 -14 -45 0 -41 2
-45 25 -45 21 0 25 5 25 30 l0 30 70 0 70 0 0 -30 c0 -25 4 -30 25 -30 23 0
25 4 25 45 0 33 -4 45 -15 45 -12 0 -15 18 -15 100 l0 100 -74 0 -74 0 -6 -67z
m104 -48 l0 -85 -44 0 -44 0 14 38 c7 20 13 58 14 85 0 46 1 47 30 47 l30 0 0
-85z"/>
<path d="M2470 1686 c0 -2 16 -37 35 -79 40 -87 43 -107 15 -114 -28 -7 -25
-33 4 -33 31 0 39 10 91 129 l44 102 -27 -3 c-23 -3 -30 -12 -47 -58 l-19 -55
-25 58 c-19 46 -29 57 -48 57 -12 0 -23 -2 -23 -4z"/>
</g>
</svg>
