<?xml version="1.0" encoding="iso-8859-1"?>
<!-- Generator: Adobe Illustrator 19.0.0, SVG Export Plug-In . SVG Version: 6.00 Build 0)  -->
<svg version="1.1" id="Layer_1" xmlns="http://www.w3.org/2000/svg" xmlns:xlink="http://www.w3.org/1999/xlink" x="0px" y="0px"
	 viewBox="0 0 512.002 512.002" style="enable-background:new 0 0 512.002 512.002;" xml:space="preserve">
<g>
	<g>
		<path d="M226.857,451.612c-3.873-3.914-8.782-6.424-14.113-7.282l0.391-67.451c0.084-13.827-5.22-26.859-14.937-36.695
			l-65.449-66.256c-6.503-6.582-15.18-10.237-24.434-10.29c-4.476-0.047-8.747,0.778-12.759,2.338l0.395-62.452
			c0.052-8.715-3.291-16.927-9.415-23.127s-14.296-9.642-23.009-9.696c-0.069,0-0.137,0-0.206,0c-8.636,0-16.77,3.339-22.92,9.414
			c-6.2,6.124-9.643,14.295-9.697,23.008L29.89,333.158c-0.049,8.222,3.105,15.974,8.886,21.828l62.922,63.697l-0.139,25.178
			c-12.276,1.852-21.759,12.443-21.838,25.232l-0.19,31.095c-0.037,6.038,4.828,10.962,10.865,11c0.023,0,0.046,0,0.069,0
			c6.006,0,10.894-4.851,10.931-10.864l0.19-31.095c0.013-2.094,1.722-3.791,3.814-3.791c0.005,0,0.011,0,0.016,0l103.208,0.425
			c1.376,0.005,2.278,0.711,2.694,1.13c0.415,0.42,1.113,1.33,1.104,2.708l-0.192,31.302c-0.037,6.037,4.828,10.962,10.864,11
			c0.023,0,0.046,0,0.069,0c6.006,0,10.893-4.852,10.931-10.864l0.192-31.303C234.328,462.966,231.69,456.495,226.857,451.612z
			 M190.882,443.925l-67.458-0.278l0.162-29.368c0.016-2.896-1.118-5.681-3.155-7.742l-66.1-66.915
			c-1.677-1.698-2.593-3.946-2.578-6.33l0.814-130.034c0.018-2.874,1.153-5.569,3.198-7.588c2.045-2.02,4.746-3.174,7.628-3.105
			c2.873,0.018,5.569,1.153,7.588,3.198s3.122,4.754,3.105,7.625l-0.596,94.293c-0.001,0.196,0.013,0.39,0.023,0.585
			c0,8.796,3.317,17.596,9.969,24.33l41.318,41.827c2.138,2.165,4.958,3.25,7.778,3.25c2.776,0,5.552-1.051,7.682-3.155
			c4.295-4.243,4.338-11.165,0.094-15.46l-41.318-41.827c-4.941-5.003-4.894-13.093,0.102-18.038
			c0.001-0.001,0.001-0.001,0.002-0.002c2.406-2.381,5.59-3.688,8.973-3.688c0.024,0,0.05,0,0.075,0
			c3.411,0.02,6.608,1.367,9.005,3.792l65.449,66.255c5.613,5.681,8.677,13.209,8.628,21.201L190.882,443.925z"/>
	</g>
</g>
<g>
	<g>
		<path d="M482.112,333.155l-0.814-130.032c-0.054-8.714-3.497-16.885-9.697-23.009s-14.406-9.43-23.126-9.414
			c-8.714,0.054-16.886,3.496-23.01,9.696s-9.467,14.413-9.415,23.129l0.395,62.45c-4.011-1.56-8.279-2.348-12.758-2.338
			c-9.253,0.054-17.931,3.708-24.434,10.291l-65.449,66.255c-9.716,9.836-15.021,22.868-14.937,36.691l0.391,67.455
			c-5.332,0.858-10.24,3.368-14.111,7.279c-4.832,4.882-7.471,11.354-7.429,18.224l0.192,31.302
			c0.037,6.015,4.924,10.864,10.931,10.864c0.023,0,0.046,0,0.069,0c6.037-0.037,10.901-4.962,10.864-11l-0.192-31.301
			c-0.009-1.379,0.688-2.289,1.104-2.709c0.415-0.42,1.318-1.125,2.695-1.13l103.209-0.425c0.005,0,0.011,0,0.016,0
			c2.091,0,3.8,1.698,3.813,3.791l0.19,31.095c0.037,6.015,4.924,10.865,10.931,10.864c0.023,0,0.046,0,0.069,0
			c6.038-0.037,10.903-4.961,10.865-11l-0.19-31.095c-0.079-12.791-9.562-23.382-21.838-25.232l-0.139-25.178l62.921-63.695
			C479.008,349.132,482.162,341.381,482.112,333.155z M457.672,339.62l-66.101,66.914c-2.036,2.061-3.17,4.846-3.155,7.742
			l0.162,29.368l-67.458,0.278l-0.389-67.178c-0.048-7.986,3.016-15.513,8.628-21.195l65.448-66.254
			c2.397-2.427,5.595-3.774,9.006-3.793c0.025,0,0.05,0,0.075,0c3.382,0,6.566,1.307,8.973,3.69
			c2.154,2.131,3.447,4.915,3.716,7.914c0.327,3.616-0.869,7.346-3.613,10.125l-41.318,41.827c-4.243,4.295-4.2,11.217,0.094,15.46
			c2.131,2.104,4.907,3.155,7.682,3.155c2.82,0,5.64-1.084,7.778-3.25l41.318-41.827c6.75-6.831,10.065-15.789,9.968-24.712
			c0.015-0.052,0.025-0.118,0.024-0.203l-0.596-94.29c-0.018-2.873,1.084-5.582,3.105-7.627c2.02-2.045,4.715-3.18,7.589-3.198
			c0.023,0,0.046,0,0.068,0c2.848,0,5.531,1.101,7.56,3.105c2.044,2.02,3.18,4.715,3.198,7.589l0.814,130.031
			C460.263,335.674,459.347,337.923,457.672,339.62z"/>
	</g>
</g>
<g>
	<g>
		<path d="M347.224,188.076c-5.525-33.618-23.679-67.244-51.117-94.682c-10.546-10.546-22.081-19.79-34.28-27.474
			c-3.563-2.243-8.095-2.242-11.656,0.002c-12.214,7.699-23.747,16.943-34.276,27.472c-27.44,27.44-45.593,61.063-51.116,94.682
			c-5.744,34.952,2.716,65.82,23.819,86.918c10.18,10.18,22.67,17.444,37.124,21.592c6.03,1.732,12.351,2.886,18.882,3.479v30.521
			c0,6.037,4.894,10.932,10.932,10.932c6.038,0,10.932-4.895,10.932-10.932v-30.617c6.373-0.603,12.842-1.687,19.336-3.254
			c0.149-0.036,0.297-0.075,0.445-0.117c14.475-4.149,26.979-11.416,37.165-21.603C344.513,253.893,352.969,223.027,347.224,188.076
			z M307.953,259.532c-7.481,7.482-16.737,12.858-27.51,15.982c-4.704,1.127-9.374,1.945-13.976,2.468v-18.533l37.721-37.721
			c4.269-4.269,4.269-11.191,0-15.461c-4.269-4.268-11.191-4.268-15.461,0l-22.26,22.26v-34.716l17.26-17.26
			c4.269-4.269,4.269-11.191,0-15.461c-4.269-4.268-11.191-4.268-15.461,0l-1.799,1.799v-27.667c0-6.037-4.894-10.932-10.932-10.932
			c-6.038,0-10.932,4.895-10.932,10.932v27.667l-1.799-1.799c-4.269-4.268-11.191-4.268-15.461,0
			c-4.269,4.269-4.269,11.191,0,15.461l17.26,17.26v34.716l-22.26-22.26c-4.269-4.268-11.191-4.268-15.461,0
			c-4.269,4.269-4.269,11.191,0,15.461l37.721,37.721v18.629c-4.448-0.504-8.747-1.33-12.847-2.509
			c-10.851-3.113-20.17-8.508-27.698-16.038c-15.987-15.982-22.274-40.1-17.703-67.91c4.788-29.142,20.771-58.536,45.002-82.767
			c7.683-7.683,15.951-14.589,24.648-20.591c8.684,5.992,16.951,12.898,24.644,20.591c24.231,24.23,40.213,53.624,45.003,82.767
			C330.221,219.431,323.936,243.549,307.953,259.532z"/>
	</g>
</g>
<g>
	<g>
		<path d="M255.536,0c-6.038,0-10.932,4.895-10.932,10.932v21.319c0,6.037,4.894,10.932,10.932,10.932
			c6.038,0,10.932-4.895,10.932-10.932V10.932C266.468,4.895,261.574,0,255.536,0z"/>
	</g>
</g>
<g>
	<g>
		<path d="M137.445,128.476h-21.319c-6.038,0-10.932,4.895-10.932,10.932c0,6.037,4.894,10.932,10.932,10.932h21.319
			c6.038,0,10.932-4.895,10.932-10.932C148.377,133.371,143.483,128.476,137.445,128.476z"/>
	</g>
</g>
<g>
	<g>
		<path d="M394.944,128.476h-21.318c-6.038,0-10.932,4.895-10.932,10.932c0,6.037,4.894,10.932,10.932,10.932h21.318
			c6.038,0,10.932-4.895,10.932-10.932C405.876,133.371,400.982,128.476,394.944,128.476z"/>
	</g>
</g>
<g>
	<g>
		<path d="M187.492,55.906l-15.074-15.074c-4.269-4.268-11.191-4.268-15.461,0c-4.269,4.269-4.269,11.191,0,15.461l15.075,15.074
			c2.135,2.134,4.933,3.202,7.73,3.202c2.797,0,5.596-1.068,7.73-3.202C191.761,67.098,191.761,60.176,187.492,55.906z"/>
	</g>
</g>
<g>
	<g>
		<path d="M354.113,40.831c-4.269-4.268-11.191-4.268-15.461,0l-15.074,15.075c-4.269,4.269-4.269,11.191,0,15.461
			c2.135,2.133,4.934,3.201,7.731,3.201s5.596-1.068,7.73-3.202l15.074-15.074C358.382,52.024,358.382,45.101,354.113,40.831z"/>
	</g>
</g>
<g>
</g>
<g>
</g>
<g>
</g>
<g>
</g>
<g>
</g>
<g>
</g>
<g>
</g>
<g>
</g>
<g>
</g>
<g>
</g>
<g>
</g>
<g>
</g>
<g>
</g>
<g>
</g>
<g>
</g>
</svg>
