<?xml version="1.0" encoding="iso-8859-1"?>
<!-- Generator: Adobe Illustrator 19.0.0, SVG Export Plug-In . SVG Version: 6.00 Build 0)  -->
<svg version="1.1" id="Capa_1" xmlns="http://www.w3.org/2000/svg" xmlns:xlink="http://www.w3.org/1999/xlink" x="0px" y="0px"
	 viewBox="0 0 442.323 442.323" style="enable-background:new 0 0 442.323 442.323;" xml:space="preserve">
<g>
	<g>
		<path d="M221.162,59.664c-18.388,0-33.295,14.907-33.295,33.295c0,0,0,0.001,0,0.001c0.021,18.379,14.916,33.273,33.295,33.294
			c18.388,0,33.295-14.907,33.295-33.295S239.55,59.664,221.162,59.664z M221.162,106.255c-7.341,0-13.292-5.949-13.295-13.29
			c0.005-7.341,5.954-13.292,13.295-13.3c7.343,0,13.295,5.952,13.295,13.295C234.457,100.303,228.504,106.255,221.162,106.255z"/>
	</g>
</g>
<g>
	<g>
		<path d="M424.02,373.323h-12.858v-39.652c-0.177-5.675-4.761-10.22-10.437-10.348h-16.563v-156h20.445
			c5.61-0.092,10.083-4.714,9.992-10.324c-0.049-2.994-1.416-5.814-3.737-7.706L227.417,2.207c-3.651-2.936-8.85-2.944-12.51-0.019
			L31.462,149.223c-4.364,3.562-5.014,9.988-1.452,14.352c1.894,2.32,4.712,3.691,7.707,3.748h20.445v156H41.599
			c-5.676,0.128-10.26,4.673-10.437,10.348v39.652H18.304c-5.52-0.079-10.06,4.33-10.142,9.85v49.5c0,5.524,4.619,9.65,10.142,9.65
			H424.02c5.523,0,10.142-4.126,10.142-9.649v-49.5C434.08,377.654,429.54,373.244,424.02,373.323z M221.162,23.092l154.981,124.231
			H66.181L221.162,23.092z M364.162,167.323v156h-31v-156H364.162z M313.162,167.323v156h-31v-156H313.162z M262.162,167.323v156
			h-31v-156H262.162z M211.162,167.323v156h-31v-156H211.162z M160.162,167.323v156h-31v-156H160.162z M109.162,167.323v156h-31
			v-156H109.162z M51.162,343.323h340v30h-340V343.323z M414.162,422.323h-386v-29h386V422.323z"/>
	</g>
</g>
<g>
</g>
<g>
</g>
<g>
</g>
<g>
</g>
<g>
</g>
<g>
</g>
<g>
</g>
<g>
</g>
<g>
</g>
<g>
</g>
<g>
</g>
<g>
</g>
<g>
</g>
<g>
</g>
<g>
</g>
</svg>
