<?xml version="1.0" encoding="iso-8859-1"?>
<!-- Generator: Adobe Illustrator 19.0.0, SVG Export Plug-In . SVG Version: 6.00 Build 0)  -->
<svg version="1.1" id="Layer_1" xmlns="http://www.w3.org/2000/svg" xmlns:xlink="http://www.w3.org/1999/xlink" x="0px" y="0px"
	 viewBox="0 0 512.002 512.002" style="enable-background:new 0 0 512.002 512.002;" xml:space="preserve">
<g>
	<g>
		<path d="M451.524,391.055c-12.385,0-23.91,3.749-33.509,10.163l-65.052-65.062c1.956-2.625,3.789-5.366,5.45-8.244
			c22.976-39.796,9.292-90.865-30.504-113.842c-2.878-1.663-5.835-3.118-8.842-4.415l23.809-88.865
			c1.317,0.087,2.638,0.132,3.962,0.132c10.252,0,20.636-2.606,30.134-8.091c28.878-16.673,38.807-53.731,22.135-82.608
			C382.434,1.346,345.378-8.581,316.499,8.089c-28.878,16.673-38.807,53.731-22.135,82.608
			c6.193,10.725,15.204,18.823,25.557,23.929l-23.803,88.839c-10.396-1.24-21.034-0.513-31.451,2.279
			c-21.503,5.761-39.473,19.55-50.604,38.829c-9.349,16.194-12.627,34.254-10.546,51.53l-88.837,23.803
			c-5.234-10.63-13.486-19.481-23.978-25.538c-13.989-8.076-30.284-10.223-45.888-6.042c-15.602,4.181-28.644,14.187-36.719,28.175
			c-16.672,28.878-6.743,65.935,22.134,82.608c9.5,5.484,19.88,8.091,30.134,8.091c20.914,0,41.286-10.848,52.473-30.225
			c6.058-10.495,8.78-22.287,7.997-34.11l88.836-23.803c6.836,16.002,18.704,30.006,34.899,39.355
			c12.842,7.414,27.091,11.202,41.533,11.202c7.238,0,14.528-0.953,21.707-2.876c10.416-2.792,19.992-7.482,28.375-13.752
			l65.025,65.034c-6.413,9.597-10.16,21.12-10.16,33.503c0,33.345,27.128,60.473,60.473,60.473s60.473-27.128,60.473-60.473
			C511.996,418.184,484.867,391.055,451.524,391.055z M314.949,78.814c-10.119-17.526-4.092-40.02,13.436-50.14
			s40.021-4.089,50.14,13.436c10.119,17.527,4.092,40.021-13.436,50.14C347.561,102.369,325.067,96.339,314.949,78.814z
			 M92.256,365.091c-10.119,17.526-32.612,23.554-50.14,13.436c-17.528-10.12-23.554-32.613-13.435-50.14
			c4.902-8.491,12.818-14.565,22.287-17.102c9.469-2.537,19.362-1.236,27.853,3.667c8.468,4.889,14.53,12.776,17.08,22.215
			c0.006,0.025,0.01,0.049,0.015,0.073c0.007,0.027,0.018,0.053,0.025,0.081C98.451,346.765,97.144,356.625,92.256,365.091z
			 M337.828,316.031c-7.954,13.778-20.802,23.636-36.171,27.755c-15.372,4.119-31.424,2.005-45.204-5.951
			c-13.781-7.955-23.637-20.802-27.756-36.171c-4.118-15.371-2.004-31.423,5.951-45.204c7.956-13.781,20.802-23.638,36.172-27.755
			c5.131-1.375,10.34-2.056,15.516-2.056c5.118,0,10.205,0.67,15.151,1.988c0.061,0.017,0.116,0.042,0.177,0.057
			c0.038,0.009,0.076,0.013,0.114,0.023c4.925,1.339,9.71,3.319,14.246,5.94c13.781,7.955,23.637,20.802,27.755,36.172
			C347.897,286.199,345.785,302.251,337.828,316.031z M451.524,488.233c-20.239,0-36.706-16.465-36.706-36.706
			c0-20.239,16.465-36.706,36.706-36.706c20.239,0,36.706,16.465,36.706,36.706C488.228,471.768,471.763,488.233,451.524,488.233z"
			/>
	</g>
</g>
<g>
	<g>
		<path d="M286.306,244.488c-14.902,0-28.78,8.001-36.219,20.883c-3.282,5.683-1.335,12.951,4.349,16.233
			c1.872,1.08,3.915,1.595,5.93,1.595c4.107,0,8.101-2.132,10.303-5.944c3.205-5.551,9.196-9,15.634-9
			c6.563,0,11.884-5.322,11.884-11.884C298.19,249.808,292.869,244.488,286.306,244.488z"/>
	</g>
</g>
<g>
</g>
<g>
</g>
<g>
</g>
<g>
</g>
<g>
</g>
<g>
</g>
<g>
</g>
<g>
</g>
<g>
</g>
<g>
</g>
<g>
</g>
<g>
</g>
<g>
</g>
<g>
</g>
<g>
</g>
</svg>
