<svg width="138" height="22" viewBox="0 0 138 22" xmlns="http://www.w3.org/2000/svg"><path d="M105.9 17.8l1.6-9.1H119V21h-3.4v-9.4h-5.4l-1.3 7.4c-.3 1.2-1.3 2-2.5 2h-2.9v-3.2h2.4zM93 8.2c5.2 0 8.6 2.8 8.5 6.6 0 .4 0 .6-.1 1H87.9c.5 1.8 2.1 2.9 5 2.9 1.4 0 3.3-.1 4.5-.9h3.9c-.8 2.5-4.6 3.6-8.3 3.6-5.2 0-8.6-2.8-8.6-6.6s3.4-6.6 8.6-6.6zm-5 5.6h10c-.5-1.9-2.3-2.9-5-2.9-2.8 0-4.6 1-5 2.9zM73.1 8.2c5.3 0 8.6 2.8 8.6 6.6s-3.4 6.6-8.6 6.6c-5.2 0-8.6-2.8-8.6-6.6V8.4c0-3.4 2.6-5.9 6-5.9h6.1V0H80v2.9c0 1.4-1.1 2.5-2.5 2.5h-9.7v4.8c1.3-1.2 3.1-2 5.3-2zm-.2 10.3c3.1 0 5.2-1.2 5.2-3.7s-2.1-3.7-5.2-3.7-5.2 1.2-5.2 3.7 2.1 3.7 5.2 3.7zM60.4 8.7v9.1h2.5V21h-3c-1.2 0-2.2-.9-2.4-2-1.4 1.4-3.4 2.4-5.8 2.4-5.2 0-8.5-2.8-8.5-6.6s3.3-6.6 8.5-6.6c2.2 0 4 .8 5.3 2V8.7h3.4zm-8.5 9.8c3.1 0 5.2-1.2 5.2-3.7s-2.1-3.7-5.2-3.7-5.2 1.2-5.2 3.7 2.1 3.7 5.2 3.7zM32.1 8.7c4.9 0 8.1 2.6 8.1 6.2 0 3.5-3.2 6.1-8.1 6.1H23V2.5h16v2.9H26.4v3.3h5.7zm-.1 9.4c2.8 0 4.7-1 4.7-3.3s-1.9-3.3-4.7-3.3h-5.6v6.6H32zm-21.2-5.7c3 .3 4.6 2 4.6 4.3 0 2.5-2.2 4.3-5.6 4.3H0v-2.9h2V0h2.9v18.1H8V0h2.8v12.4zm121.1-.8c3.8 0 6.2 1.9 6.1 4.6 0 2.8-2.4 4.8-6.2 4.8h-9.4V8.7h3.4v2.9h6.1zm0 6.5c1.6 0 2.6-.5 2.6-1.9 0-1.2-1-1.8-2.6-1.8h-6.1v3.7h6.1z"/></svg>